{
    "accessors" : [
        {
            "bufferView" : 0,
            "componentType" : 5121,
            "count" : 24,
            "max" : [
                17
            ],
            "min" : [
                0
            ],
            "type" : "SCALAR"
        },
        {
            "bufferView" : 1,
            "componentType" : 5126,
            "count" : 18,
            "max" : [
                0.1260000765323639,
                0.14400000870227814,
                0.20292547345161438
            ],
            "min" : [
                -0.12600001692771912,
                -4.470348535789981e-09,
                -0.1570747345685959
            ],
            "type" : "VEC3"
        },
        {
            "bufferView" : 2,
            "componentType" : 5126,
            "count" : 18,
            "max" : [
                0.94385826587677,
                1.0,
                0.3303506374359131
            ],
            "min" : [
                -0.9438585042953491,
                -1.0,
                -1.0
            ],
            "type" : "VEC3"
        },
        {
            "bufferView" : 3,
            "componentType" : 5126,
            "count" : 18,
            "max" : [
                9.148903501454697e-08,
                6.793013085371058e-08,
                0.9438583254814148,
                1.0
            ],
            "min" : [
                -0.3303505778312683,
                -1.0,
                -0.9438585042953491,
                1.0
            ],
            "type" : "VEC4"
        },
        {
            "bufferView" : 4,
            "componentType" : 5126,
            "count" : 18,
            "max" : [
                0.9605087637901306,
                0.9671113789081573
            ],
            "min" : [
                0.027529269456863403,
                0.029983937740325928
            ],
            "type" : "VEC2"
        }
    ],
    "asset" : {
        "generator" : "Khronos Blender glTF 2.0 exporter",
        "version" : "2.0"
    },
    "bufferViews" : [
        {
            "buffer" : 0,
            "byteLength" : 24,
            "byteOffset" : 0,
            "target" : 34963
        },
        {
            "buffer" : 0,
            "byteLength" : 216,
            "byteOffset" : 24,
            "target" : 34962
        },
        {
            "buffer" : 0,
            "byteLength" : 216,
            "byteOffset" : 240,
            "target" : 34962
        },
        {
            "buffer" : 0,
            "byteLength" : 288,
            "byteOffset" : 456,
            "target" : 34962
        },
        {
            "buffer" : 0,
            "byteLength" : 144,
            "byteOffset" : 744,
            "target" : 34962
        }
    ],
    "buffers" : [
        {
            "byteLength" : 888,
            "uri" : "Cheese.bin"
        }
    ],
    "images" : [
        {
            "mimeType" : "image/png",
            "name" : "CheeseColour",
            "uri" : "data:image/png;base64,"
        }
    ],
    "materials" : [
        {
            "name" : "CheeseMaterial",
            "pbrMetallicRoughness" : {
                "baseColorFactor" : [
                    0.800000011920929,
                    0.800000011920929,
                    0.800000011920929,
                    1.0
                ],
                "baseColorTexture" : {
                    "index" : 0
                },
                "metallicFactor" : 0.0
            }
        }
    ],
    "meshes" : [
        {
            "name" : "CheeseBlock",
            "primitives" : [
                {
                    "attributes" : {
                        "NORMAL" : 2,
                        "POSITION" : 1,
                        "TANGENT" : 3,
                        "TEXCOORD_0" : 4
                    },
                    "indices" : 0,
                    "material" : 0
                }
            ]
        }
    ],
    "nodes" : [
        {
            "mesh" : 0,
            "name" : "CheeseBlock"
        }
    ],
    "samplers" : [
        {}
    ],
    "scene" : 0,
    "scenes" : [
        {
            "name" : "Scene",
            "nodes" : [
                0
            ]
        }
    ],
    "textures" : [
        {
            "sampler" : 0,
            "source" : 0
        }
    ]
}
