{
    "accessors" : [
        {
            "bufferView" : 0,
            "componentType" : 5121,
            "count" : 1152,
            "max" : [
                204
            ],
            "min" : [
                0
            ],
            "type" : "SCALAR"
        },
        {
            "bufferView" : 1,
            "componentType" : 5126,
            "count" : 205,
            "max" : [
                0.9761029481887817,
                1.2707045078277588,
                0.972518265247345
            ],
            "min" : [
                -1.0195006132125854,
                0.0,
                -1.0329777002334595
            ],
            "type" : "VEC3"
        },
        {
            "bufferView" : 2,
            "componentType" : 5126,
            "count" : 205,
            "max" : [
                0.9661855101585388,
                0.9980468153953552,
                0.9978637099266052
            ],
            "min" : [
                -0.9733878374099731,
                -0.9669789671897888,
                -0.9485763311386108
            ],
            "type" : "VEC3"
        },
        {
            "bufferView" : 3,
            "componentType" : 5126,
            "count" : 205,
            "max" : [
                0.7265915870666504,
                0.9823075532913208,
                0.9950732588768005,
                1.0
            ],
            "min" : [
                -0.1183551773428917,
                -0.9593564867973328,
                -0.9619520306587219,
                1.0
            ],
            "type" : "VEC4"
        },
        {
            "bufferView" : 4,
            "componentType" : 5126,
            "count" : 205,
            "max" : [
                0.9999005198478699,
                0.9999003918492235
            ],
            "min" : [
                9.960815077647567e-05,
                0.0075244903564453125
            ],
            "type" : "VEC2"
        }
    ],
    "asset" : {
        "generator" : "Khronos Blender glTF 2.0 exporter",
        "version" : "2.0"
    },
    "bufferViews" : [
        {
            "buffer" : 0,
            "byteLength" : 1152,
            "byteOffset" : 0,
            "target" : 34963
        },
        {
            "buffer" : 0,
            "byteLength" : 2460,
            "byteOffset" : 1152,
            "target" : 34962
        },
        {
            "buffer" : 0,
            "byteLength" : 2460,
            "byteOffset" : 3612,
            "target" : 34962
        },
        {
            "buffer" : 0,
            "byteLength" : 3280,
            "byteOffset" : 6072,
            "target" : 34962
        },
        {
            "buffer" : 0,
            "byteLength" : 1640,
            "byteOffset" : 9352,
            "target" : 34962
        }
    ],
    "buffers" : [
        {
            "byteLength" : 10992,
            "uri" : "DirtMound.bin"
        }
    ],
    "images" : [
        {
            "mimeType" : "image/png",
            "name" : "DirtMoundColour",
            "uri" : "data:image/png;base64,"
        }
    ],
    "materials" : [
        {
            "name" : "DirtMound",
            "pbrMetallicRoughness" : {
                "baseColorFactor" : [
                    0.800000011920929,
                    0.800000011920929,
                    0.800000011920929,
                    1.0
                ],
                "baseColorTexture" : {
                    "index" : 0
                },
                "metallicFactor" : 0.0
            }
        }
    ],
    "meshes" : [
        {
            "name" : "DirtMound",
            "primitives" : [
                {
                    "attributes" : {
                        "NORMAL" : 2,
                        "POSITION" : 1,
                        "TANGENT" : 3,
                        "TEXCOORD_0" : 4
                    },
                    "indices" : 0,
                    "material" : 0
                }
            ]
        }
    ],
    "nodes" : [
        {
            "mesh" : 0,
            "name" : "DirtMound"
        }
    ],
    "samplers" : [
        {}
    ],
    "scene" : 0,
    "scenes" : [
        {
            "name" : "Scene",
            "nodes" : [
                0
            ]
        }
    ],
    "textures" : [
        {
            "sampler" : 0,
            "source" : 0
        }
    ]
}
