{
    "accessors" : [
        {
            "bufferView" : 0,
            "componentType" : 5121,
            "count" : 228,
            "max" : [
                159
            ],
            "min" : [
                0
            ],
            "type" : "SCALAR"
        },
        {
            "bufferView" : 1,
            "componentType" : 5126,
            "count" : 160,
            "max" : [
                1.0,
                4.030122756958008,
                5.960464477539063e-08
            ],
            "min" : [
                -1.0,
                0.03322255611419678,
                -0.29202258586883545
            ],
            "type" : "VEC3"
        },
        {
            "bufferView" : 2,
            "componentType" : 5126,
            "count" : 160,
            "max" : [
                1.0,
                1.0,
                1.0
            ],
            "min" : [
                -1.0,
                -1.0,
                -1.0
            ],
            "type" : "VEC3"
        },
        {
            "bufferView" : 3,
            "componentType" : 5126,
            "count" : 160,
            "max" : [
                1.0,
                1.0,
                1.0,
                1.0
            ],
            "min" : [
                -1.0,
                -1.0,
                -1.0,
                1.0
            ],
            "type" : "VEC4"
        },
        {
            "bufferView" : 4,
            "componentType" : 5126,
            "count" : 160,
            "max" : [
                0.9576603770256042,
                0.9840936958789825
            ],
            "min" : [
                0.02296912670135498,
                0.006562292575836182
            ],
            "type" : "VEC2"
        },
        {
            "bufferView" : 5,
            "componentType" : 5123,
            "count" : 160,
            "max" : [
                1,
                0,
                0,
                0
            ],
            "min" : [
                0,
                0,
                0,
                0
            ],
            "type" : "VEC4"
        },
        {
            "bufferView" : 6,
            "componentType" : 5126,
            "count" : 160,
            "max" : [
                1.0,
                0.0,
                0.0,
                0.0
            ],
            "min" : [
                1.0,
                0.0,
                0.0,
                0.0
            ],
            "type" : "VEC4"
        },
        {
            "bufferView" : 7,
            "componentType" : 5126,
            "count" : 2,
            "max" : [
                1.0,
                2.945771542819074e-14,
                0.0,
                0.0,
                0.0,
                1.0,
                0.0,
                0.0,
                2.856953700849062e-14,
                1.0,
                1.0,
                0.0,
                0.0,
                0.0,
                0.24700301885604858,
                1.0
            ],
            "min" : [
                1.0,
                0.0,
                -3.8941436741879443e-07,
                0.0,
                -3.8941436741879443e-07,
                1.4901158351676713e-07,
                -1.0,
                0.0,
                0.0,
                0.0,
                1.4901158351676713e-07,
                0.0,
                0.0,
                -2.0,
                0.0,
                1.0
            ],
            "type" : "MAT4"
        },
        {
            "bufferView" : 8,
            "componentType" : 5126,
            "count" : 75,
            "max" : [
                3.0833333333333335
            ],
            "min" : [
                0.0
            ],
            "type" : "SCALAR"
        },
        {
            "bufferView" : 9,
            "componentType" : 5126,
            "count" : 75,
            "max" : [
                0.0,
                2.0,
                -0.24700301885604858
            ],
            "min" : [
                0.0,
                2.0,
                -0.24700301885604858
            ],
            "type" : "VEC3"
        },
        {
            "bufferView" : 10,
            "componentType" : 5126,
            "count" : 75,
            "max" : [
                3.0833333333333335
            ],
            "min" : [
                0.0
            ],
            "type" : "SCALAR"
        },
        {
            "bufferView" : 11,
            "componentType" : 5126,
            "count" : 75,
            "max" : [
                1.0,
                2.0580219813963713e-22,
                2.213377691654374e-16,
                1.0
            ],
            "min" : [
                -0.9948506951332092,
                -1.5965943925207863e-22,
                -2.220446049250313e-16,
                -2.465190328815662e-32
            ],
            "type" : "VEC4"
        },
        {
            "bufferView" : 12,
            "componentType" : 5126,
            "count" : 75,
            "max" : [
                3.0833333333333335
            ],
            "min" : [
                0.0
            ],
            "type" : "SCALAR"
        },
        {
            "bufferView" : 13,
            "componentType" : 5126,
            "count" : 75,
            "max" : [
                1.0,
                1.0000003576278687,
                1.0000003576278687
            ],
            "min" : [
                1.0,
                0.9999997019767761,
                0.9999997019767761
            ],
            "type" : "VEC3"
        },
        {
            "bufferView" : 14,
            "componentType" : 5126,
            "count" : 75,
            "max" : [
                3.0833333333333335
            ],
            "min" : [
                0.0
            ],
            "type" : "SCALAR"
        },
        {
            "bufferView" : 15,
            "componentType" : 5126,
            "count" : 75,
            "max" : [
                0.0,
                0.0,
                0.0
            ],
            "min" : [
                0.0,
                0.0,
                0.0
            ],
            "type" : "VEC3"
        },
        {
            "bufferView" : 16,
            "componentType" : 5126,
            "count" : 75,
            "max" : [
                3.0833333333333335
            ],
            "min" : [
                0.0
            ],
            "type" : "SCALAR"
        },
        {
            "bufferView" : 17,
            "componentType" : 5126,
            "count" : 75,
            "max" : [
                0.7071067094802856,
                -1.376787679419067e-07,
                -1.376787679419067e-07,
                0.70710688829422
            ],
            "min" : [
                0.7071067094802856,
                -1.376787679419067e-07,
                -1.376787679419067e-07,
                0.70710688829422
            ],
            "type" : "VEC4"
        },
        {
            "bufferView" : 18,
            "componentType" : 5126,
            "count" : 75,
            "max" : [
                3.0833333333333335
            ],
            "min" : [
                0.0
            ],
            "type" : "SCALAR"
        },
        {
            "bufferView" : 19,
            "componentType" : 5126,
            "count" : 75,
            "max" : [
                1.0,
                1.0,
                1.0
            ],
            "min" : [
                1.0,
                1.0,
                1.0
            ],
            "type" : "VEC3"
        },
        {
            "bufferView" : 20,
            "componentType" : 5126,
            "count" : 75,
            "max" : [
                3.0833333333333335
            ],
            "min" : [
                0.0
            ],
            "type" : "SCALAR"
        },
        {
            "bufferView" : 21,
            "componentType" : 5126,
            "count" : 75,
            "max" : [
                0.0,
                2.0,
                -0.24700301885604858
            ],
            "min" : [
                0.0,
                2.0,
                -0.24700301885604858
            ],
            "type" : "VEC3"
        },
        {
            "bufferView" : 22,
            "componentType" : 5126,
            "count" : 75,
            "max" : [
                3.0833333333333335
            ],
            "min" : [
                0.0
            ],
            "type" : "SCALAR"
        },
        {
            "bufferView" : 23,
            "componentType" : 5126,
            "count" : 75,
            "max" : [
                1.0,
                2.5793719495035237e-22,
                1.5794226320756913e-16,
                1.0
            ],
            "min" : [
                -0.9924014210700989,
                -2.1512587770707634e-22,
                -2.220446049250313e-16,
                2.465190328815662e-32
            ],
            "type" : "VEC4"
        },
        {
            "bufferView" : 24,
            "componentType" : 5126,
            "count" : 75,
            "max" : [
                3.0833333333333335
            ],
            "min" : [
                0.0
            ],
            "type" : "SCALAR"
        },
        {
            "bufferView" : 25,
            "componentType" : 5126,
            "count" : 75,
            "max" : [
                1.0,
                1.000000238418579,
                1.000000238418579
            ],
            "min" : [
                1.0,
                0.9999996423721313,
                0.9999996423721313
            ],
            "type" : "VEC3"
        },
        {
            "bufferView" : 26,
            "componentType" : 5126,
            "count" : 75,
            "max" : [
                3.0833333333333335
            ],
            "min" : [
                0.0
            ],
            "type" : "SCALAR"
        },
        {
            "bufferView" : 27,
            "componentType" : 5126,
            "count" : 75,
            "max" : [
                0.0,
                0.0,
                0.0
            ],
            "min" : [
                0.0,
                0.0,
                0.0
            ],
            "type" : "VEC3"
        },
        {
            "bufferView" : 28,
            "componentType" : 5126,
            "count" : 75,
            "max" : [
                3.0833333333333335
            ],
            "min" : [
                0.0
            ],
            "type" : "SCALAR"
        },
        {
            "bufferView" : 29,
            "componentType" : 5126,
            "count" : 75,
            "max" : [
                0.7071067094802856,
                -1.376787679419067e-07,
                -1.376787679419067e-07,
                0.70710688829422
            ],
            "min" : [
                0.7071067094802856,
                -1.376787679419067e-07,
                -1.376787679419067e-07,
                0.70710688829422
            ],
            "type" : "VEC4"
        },
        {
            "bufferView" : 30,
            "componentType" : 5126,
            "count" : 75,
            "max" : [
                3.0833333333333335
            ],
            "min" : [
                0.0
            ],
            "type" : "SCALAR"
        },
        {
            "bufferView" : 31,
            "componentType" : 5126,
            "count" : 75,
            "max" : [
                1.0,
                1.0,
                1.0
            ],
            "min" : [
                1.0,
                1.0,
                1.0
            ],
            "type" : "VEC3"
        }
    ],
    "animations" : [
        {
            "channels" : [
                {
                    "sampler" : 0,
                    "target" : {
                        "node" : 2,
                        "path" : "translation"
                    }
                },
                {
                    "sampler" : 1,
                    "target" : {
                        "node" : 2,
                        "path" : "rotation"
                    }
                },
                {
                    "sampler" : 2,
                    "target" : {
                        "node" : 2,
                        "path" : "scale"
                    }
                },
                {
                    "sampler" : 3,
                    "target" : {
                        "node" : 3,
                        "path" : "translation"
                    }
                },
                {
                    "sampler" : 4,
                    "target" : {
                        "node" : 3,
                        "path" : "rotation"
                    }
                },
                {
                    "sampler" : 5,
                    "target" : {
                        "node" : 3,
                        "path" : "scale"
                    }
                }
            ],
            "name" : "SpinningB",
            "samplers" : [
                {
                    "input" : 20,
                    "interpolation" : "LINEAR",
                    "output" : 21
                },
                {
                    "input" : 22,
                    "interpolation" : "LINEAR",
                    "output" : 23
                },
                {
                    "input" : 24,
                    "interpolation" : "LINEAR",
                    "output" : 25
                },
                {
                    "input" : 26,
                    "interpolation" : "LINEAR",
                    "output" : 27
                },
                {
                    "input" : 28,
                    "interpolation" : "LINEAR",
                    "output" : 29
                },
                {
                    "input" : 30,
                    "interpolation" : "LINEAR",
                    "output" : 31
                }
            ]
        },
        {
            "channels" : [
                {
                    "sampler" : 0,
                    "target" : {
                        "node" : 2,
                        "path" : "translation"
                    }
                },
                {
                    "sampler" : 1,
                    "target" : {
                        "node" : 2,
                        "path" : "rotation"
                    }
                },
                {
                    "sampler" : 2,
                    "target" : {
                        "node" : 2,
                        "path" : "scale"
                    }
                },
                {
                    "sampler" : 3,
                    "target" : {
                        "node" : 3,
                        "path" : "translation"
                    }
                },
                {
                    "sampler" : 4,
                    "target" : {
                        "node" : 3,
                        "path" : "rotation"
                    }
                },
                {
                    "sampler" : 5,
                    "target" : {
                        "node" : 3,
                        "path" : "scale"
                    }
                }
            ],
            "name" : "SpinningA",
            "samplers" : [
                {
                    "input" : 8,
                    "interpolation" : "LINEAR",
                    "output" : 9
                },
                {
                    "input" : 10,
                    "interpolation" : "LINEAR",
                    "output" : 11
                },
                {
                    "input" : 12,
                    "interpolation" : "LINEAR",
                    "output" : 13
                },
                {
                    "input" : 14,
                    "interpolation" : "LINEAR",
                    "output" : 15
                },
                {
                    "input" : 16,
                    "interpolation" : "LINEAR",
                    "output" : 17
                },
                {
                    "input" : 18,
                    "interpolation" : "LINEAR",
                    "output" : 19
                }
            ]
        }
    ],
    "asset" : {
        "generator" : "Khronos Blender glTF 2.0 exporter",
        "version" : "2.0"
    },
    "bufferViews" : [
        {
            "buffer" : 0,
            "byteLength" : 228,
            "byteOffset" : 0,
            "target" : 34963
        },
        {
            "buffer" : 0,
            "byteLength" : 1920,
            "byteOffset" : 228,
            "target" : 34962
        },
        {
            "buffer" : 0,
            "byteLength" : 1920,
            "byteOffset" : 2148,
            "target" : 34962
        },
        {
            "buffer" : 0,
            "byteLength" : 2560,
            "byteOffset" : 4068,
            "target" : 34962
        },
        {
            "buffer" : 0,
            "byteLength" : 1280,
            "byteOffset" : 6628,
            "target" : 34962
        },
        {
            "buffer" : 0,
            "byteLength" : 1280,
            "byteOffset" : 7908,
            "target" : 34962
        },
        {
            "buffer" : 0,
            "byteLength" : 2560,
            "byteOffset" : 9188,
            "target" : 34962
        },
        {
            "buffer" : 0,
            "byteLength" : 128,
            "byteOffset" : 11748
        },
        {
            "buffer" : 0,
            "byteLength" : 300,
            "byteOffset" : 11876
        },
        {
            "buffer" : 0,
            "byteLength" : 900,
            "byteOffset" : 12176
        },
        {
            "buffer" : 0,
            "byteLength" : 300,
            "byteOffset" : 13076
        },
        {
            "buffer" : 0,
            "byteLength" : 1200,
            "byteOffset" : 13376
        },
        {
            "buffer" : 0,
            "byteLength" : 300,
            "byteOffset" : 14576
        },
        {
            "buffer" : 0,
            "byteLength" : 900,
            "byteOffset" : 14876
        },
        {
            "buffer" : 0,
            "byteLength" : 300,
            "byteOffset" : 15776
        },
        {
            "buffer" : 0,
            "byteLength" : 900,
            "byteOffset" : 16076
        },
        {
            "buffer" : 0,
            "byteLength" : 300,
            "byteOffset" : 16976
        },
        {
            "buffer" : 0,
            "byteLength" : 1200,
            "byteOffset" : 17276
        },
        {
            "buffer" : 0,
            "byteLength" : 300,
            "byteOffset" : 18476
        },
        {
            "buffer" : 0,
            "byteLength" : 900,
            "byteOffset" : 18776
        },
        {
            "buffer" : 0,
            "byteLength" : 300,
            "byteOffset" : 19676
        },
        {
            "buffer" : 0,
            "byteLength" : 900,
            "byteOffset" : 19976
        },
        {
            "buffer" : 0,
            "byteLength" : 300,
            "byteOffset" : 20876
        },
        {
            "buffer" : 0,
            "byteLength" : 1200,
            "byteOffset" : 21176
        },
        {
            "buffer" : 0,
            "byteLength" : 300,
            "byteOffset" : 22376
        },
        {
            "buffer" : 0,
            "byteLength" : 900,
            "byteOffset" : 22676
        },
        {
            "buffer" : 0,
            "byteLength" : 300,
            "byteOffset" : 23576
        },
        {
            "buffer" : 0,
            "byteLength" : 900,
            "byteOffset" : 23876
        },
        {
            "buffer" : 0,
            "byteLength" : 300,
            "byteOffset" : 24776
        },
        {
            "buffer" : 0,
            "byteLength" : 1200,
            "byteOffset" : 25076
        },
        {
            "buffer" : 0,
            "byteLength" : 300,
            "byteOffset" : 26276
        },
        {
            "buffer" : 0,
            "byteLength" : 900,
            "byteOffset" : 26576
        }
    ],
    "buffers" : [
        {
            "byteLength" : 27476,
            "uri" : "FenceSpinner.bin"
        }
    ],
    "images" : [
        {
            "mimeType" : "image/png",
            "name" : "Fence_Colour",
            "uri" : "data:image/png;base64,"
        }
    ],
    "materials" : [
        {
            "name" : "Fence",
            "pbrMetallicRoughness" : {
                "baseColorFactor" : [
                    0.800000011920929,
                    0.800000011920929,
                    0.800000011920929,
                    1.0
                ],
                "baseColorTexture" : {
                    "index" : 0
                },
                "metallicFactor" : 0.0
            }
        }
    ],
    "meshes" : [
        {
            "name" : "FenceSpinner",
            "primitives" : [
                {
                    "attributes" : {
                        "JOINTS_0" : 5,
                        "NORMAL" : 2,
                        "POSITION" : 1,
                        "TANGENT" : 3,
                        "TEXCOORD_0" : 4,
                        "WEIGHTS_0" : 6
                    },
                    "indices" : 0,
                    "material" : 0
                }
            ]
        }
    ],
    "nodes" : [
        {
            "children" : [
                1,
                2,
                3
            ],
            "name" : "FenceRIgg"
        },
        {
            "mesh" : 0,
            "name" : "FenceSpinner",
            "skin" : 0
        },
        {
            "name" : "FenceRIgg_FenceSpinner",
            "translation" : [
                0.0,
                2.0,
                -0.24700301885604858
            ]
        },
        {
            "name" : "FenceRIgg_Static",
            "rotation" : [
                0.7071067094802856,
                -1.376787679419067e-07,
                -1.376787679419067e-07,
                0.70710688829422
            ]
        }
    ],
    "samplers" : [
        {}
    ],
    "scene" : 0,
    "scenes" : [
        {
            "name" : "Scene",
            "nodes" : [
                0
            ]
        }
    ],
    "skins" : [
        {
            "inverseBindMatrices" : 7,
            "joints" : [
                2,
                3
            ],
            "skeleton" : 0
        }
    ],
    "textures" : [
        {
            "sampler" : 0,
            "source" : 0
        }
    ]
}
