{
    "accessors" : [
        {
            "bufferView" : 0,
            "componentType" : 5121,
            "count" : 984,
            "max" : [
                205
            ],
            "min" : [
                0
            ],
            "type" : "SCALAR"
        },
        {
            "bufferView" : 1,
            "componentType" : 5126,
            "count" : 206,
            "max" : [
                1.995651125907898,
                5.614459037780762,
                1.904329538345337
            ],
            "min" : [
                -1.8023470640182495,
                0.0,
                -1.702978253364563
            ],
            "type" : "VEC3"
        },
        {
            "bufferView" : 2,
            "componentType" : 5126,
            "count" : 206,
            "max" : [
                0.9884029626846313,
                1.0,
                0.9884029626846313
            ],
            "min" : [
                -0.9884029626846313,
                -0.9984435439109802,
                -0.9978637099266052
            ],
            "type" : "VEC3"
        },
        {
            "bufferView" : 3,
            "componentType" : 5126,
            "count" : 206,
            "max" : [
                0.9654481410980225,
                0.9722761511802673,
                0.9206284284591675,
                1.0
            ],
            "min" : [
                -0.997714638710022,
                -0.9938107132911682,
                -0.9980455636978149,
                1.0
            ],
            "type" : "VEC4"
        },
        {
            "bufferView" : 4,
            "componentType" : 5126,
            "count" : 206,
            "max" : [
                0.9962611198425293,
                0.9976590313017368
            ],
            "min" : [
                0.009388357400894165,
                0.0068236589431762695
            ],
            "type" : "VEC2"
        }
    ],
    "asset" : {
        "generator" : "Khronos Blender glTF 2.0 exporter",
        "version" : "2.0"
    },
    "bufferViews" : [
        {
            "buffer" : 0,
            "byteLength" : 984,
            "byteOffset" : 0,
            "target" : 34963
        },
        {
            "buffer" : 0,
            "byteLength" : 2472,
            "byteOffset" : 984,
            "target" : 34962
        },
        {
            "buffer" : 0,
            "byteLength" : 2472,
            "byteOffset" : 3456,
            "target" : 34962
        },
        {
            "buffer" : 0,
            "byteLength" : 3296,
            "byteOffset" : 5928,
            "target" : 34962
        },
        {
            "buffer" : 0,
            "byteLength" : 1648,
            "byteOffset" : 9224,
            "target" : 34962
        }
    ],
    "buffers" : [
        {
            "byteLength" : 10872,
            "uri" : "Tree.bin"
        }
    ],
    "images" : [
        {
            "mimeType" : "image/png",
            "name" : "TreeTexture",
            "uri" : "data:image/png;base64,"
        }
    ],
    "materials" : [
        {
            "name" : "Material",
            "pbrMetallicRoughness" : {
                "baseColorFactor" : [
                    0.800000011920929,
                    0.800000011920929,
                    0.800000011920929,
                    1.0
                ],
                "baseColorTexture" : {
                    "index" : 0
                },
                "metallicFactor" : 0.0
            }
        }
    ],
    "meshes" : [
        {
            "name" : "Tree",
            "primitives" : [
                {
                    "attributes" : {
                        "NORMAL" : 2,
                        "POSITION" : 1,
                        "TANGENT" : 3,
                        "TEXCOORD_0" : 4
                    },
                    "indices" : 0,
                    "material" : 0
                }
            ]
        }
    ],
    "nodes" : [
        {
            "mesh" : 0,
            "name" : "Tree"
        }
    ],
    "samplers" : [
        {}
    ],
    "scene" : 0,
    "scenes" : [
        {
            "name" : "Scene",
            "nodes" : [
                0
            ]
        }
    ],
    "textures" : [
        {
            "sampler" : 0,
            "source" : 0
        }
    ]
}
